<?xml version="1.0" encoding="utf-8"?>
<!-- Generator: Adobe Illustrator 16.0.0, SVG Export Plug-In . SVG Version: 6.00 Build 0)  -->
<!DOCTYPE svg PUBLIC "-//W3C//DTD SVG 1.1//EN" "http://www.w3.org/Graphics/SVG/1.1/DTD/svg11.dtd">
<svg version="1.1" id="Layer_2" xmlns="http://www.w3.org/2000/svg" xmlns:xlink="http://www.w3.org/1999/xlink" x="0px" y="0px"
	 width="255.118px" height="161.575px" viewBox="0 0 255.118 161.575" enable-background="new 0 0 255.118 161.575"
	 xml:space="preserve">
<g>
	<g>
		<path fill="#86CCDA" d="M160.791,17.045H61.65V0.497h99.141V17.045z M160.791,50.139H61.65V33.585h99.141V50.139z M160.791,83.093
			H61.65V66.548h99.141V83.093z"/>
		<path fill="#86CCDA" d="M193.472,83.928h-16.549V0h16.549V83.928z"/>
	</g>
</g>
<g>
	<path fill="#85CBDA" d="M34.51,152.958l2.764-0.286l0.191,5.627c-7.248,1.016-13.445,1.523-18.59,1.523
		c-6.865,0-11.728-1.986-14.586-5.959C1.426,149.893,0,143.709,0,135.319c0-16.711,6.637-25.07,19.921-25.07
		c6.42,0,11.219,1.797,14.395,5.387c3.177,3.591,4.77,9.232,4.77,16.919l-0.376,5.437H7.248c0,5.273,0.949,9.185,2.861,11.724
		c1.901,2.545,5.221,3.815,9.96,3.815C24.802,153.532,29.617,153.339,34.51,152.958z M31.936,132.273
		c0-5.846-0.935-9.979-2.808-12.395c-1.88-2.415-4.936-3.623-9.152-3.623c-4.232,0-7.41,1.273-9.538,3.813
		c-2.128,2.544-3.229,6.612-3.29,12.205H31.936z"/>
	<path fill="#85CBDA" d="M50.814,158.871V97.756h7.146v61.115H50.814z"/>
	<path fill="#9B9A9A" d="M70.271,111.206h7.147l9.632,41.466h1.527l11.339-40.514h7.438l11.346,40.514h1.623l9.527-41.466h7.151
		l-11.343,47.665h-11.915l-10.105-37.276l-10.103,37.276H81.615L70.271,111.206z"/>
	<path fill="#9B9A9A" d="M146.825,104.932v-7.176h7.147v7.176H146.825z M146.825,158.871v-47.665h7.147v47.665H146.825z"/>
	<path fill="#9B9A9A" d="M204.307,97.756v61.115h-7.058v-3.243c-4.89,2.798-9.716,4.195-14.485,4.195
		c-2.549,0-4.769-0.318-6.676-0.952c-1.909-0.638-3.681-1.779-5.337-3.433c-3.431-3.433-5.146-9.771-5.146-19.02
		c0-9.248,1.538-15.922,4.623-20.02c3.074-4.098,8.18-6.149,15.294-6.149c3.695,0,7.597,0.417,11.728,1.241V97.756H204.307z
		 M179.518,152.766c1.144,0.447,2.625,0.669,4.437,0.669c1.812,0,3.84-0.302,6.097-0.904s4.023-1.19,5.292-1.766l1.905-0.855
		v-32.321c-4.069-0.762-7.848-1.142-11.343-1.142c-4.829,0-8.196,1.54-10.104,4.622c-1.902,3.085-2.855,7.866-2.855,14.349
		c0,7.374,1.107,12.33,3.328,14.874C177.297,151.498,178.378,152.323,179.518,152.766z"/>
	<path fill="#9B9A9A" d="M250.541,152.958l2.766-0.286l0.192,5.627c-7.248,1.016-13.444,1.523-18.593,1.523
		c-6.867,0-11.725-1.986-14.586-5.959c-2.861-3.971-4.285-10.154-4.285-18.544c0-16.711,6.633-25.07,19.924-25.07
		c6.414,0,11.211,1.797,14.388,5.387c3.184,3.591,4.772,9.232,4.772,16.919l-0.381,5.437h-31.462c0,5.273,0.953,9.185,2.863,11.724
		c1.901,2.545,5.226,3.815,9.964,3.815C240.839,153.532,245.647,153.339,250.541,152.958z M247.971,132.273
		c0-5.846-0.936-9.979-2.819-12.395c-1.873-2.415-4.925-3.623-9.146-3.623c-4.226,0-7.408,1.273-9.534,3.813
		c-2.127,2.544-3.227,6.612-3.29,12.205H247.971z"/>
</g>
</svg>
